<mxfile modified="2022-12-13T15:10:59.573Z" host="app.diagrams.net" agent="5.0 (X11)" etag="y28zJeA4UaDMBBqhsh_M" version="20.6.2" type="github">
  <diagram id="Ht1M8jgEwFfnCIfOTk4-" name="Page-1">
    <mxGraphModel dx="1185" dy="1460" grid="1" gridSize="10" guides="1" tooltips="1" connect="1" arrows="1" fold="1" page="1" pageScale="1" pageWidth="1169" pageHeight="827" math="0" shadow="0">
      <root>
        <mxCell id="0" />
        <mxCell id="1" parent="0" />
        <mxCell id="xgc6DM9Copx6KXdF2zNQ-38" value="" style="rounded=0;whiteSpace=wrap;html=1;dashed=1;strokeWidth=5;fillColor=none;" parent="1" vertex="1">
          <mxGeometry x="1130" y="-88" width="346.5" height="166" as="geometry" />
        </mxCell>
        <mxCell id="6ciUN1QbZPSy4jL6s6Ek-6" value="" style="rounded=1;whiteSpace=wrap;html=1;strokeWidth=3;fontSize=30;fillColor=none;strokeColor=#FF5314;" parent="1" vertex="1">
          <mxGeometry x="75" y="-740" width="2115" height="1310" as="geometry" />
        </mxCell>
        <mxCell id="xgc6DM9Copx6KXdF2zNQ-42" value="" style="rounded=0;whiteSpace=wrap;html=1;dashed=1;strokeWidth=5;fillColor=none;" parent="1" vertex="1">
          <mxGeometry x="1130" y="-297" width="346.5" height="166" as="geometry" />
        </mxCell>
        <mxCell id="xgc6DM9Copx6KXdF2zNQ-31" value="" style="rounded=0;whiteSpace=wrap;html=1;dashed=1;strokeWidth=5;fillColor=none;" parent="1" vertex="1">
          <mxGeometry x="1130" y="123" width="346.5" height="166" as="geometry" />
        </mxCell>
        <mxCell id="xgc6DM9Copx6KXdF2zNQ-32" value="&lt;div&gt;the backend uses django storages &lt;br&gt;&lt;/div&gt;&lt;div&gt;to upload book covers to a &lt;br&gt;&lt;/div&gt;&lt;div&gt;dedicated s3 bucket hosted on aws &lt;br&gt;&lt;/div&gt;&lt;div&gt;&lt;br&gt;&lt;/div&gt;" style="text;html=1;align=center;verticalAlign=middle;resizable=0;points=[];autosize=1;strokeColor=none;fillColor=none;fontSize=30;fontColor=#FF6E42;labelBackgroundColor=default;" parent="1" vertex="1">
          <mxGeometry x="1498" y="140" width="490" height="160" as="geometry" />
        </mxCell>
        <mxCell id="xgc6DM9Copx6KXdF2zNQ-48" style="edgeStyle=orthogonalEdgeStyle;rounded=0;orthogonalLoop=1;jettySize=auto;html=1;strokeWidth=6;fontSize=30;fontColor=none;" parent="1" source="6ciUN1QbZPSy4jL6s6Ek-3" target="xgc6DM9Copx6KXdF2zNQ-38" edge="1">
          <mxGeometry relative="1" as="geometry" />
        </mxCell>
        <mxCell id="xgc6DM9Copx6KXdF2zNQ-49" style="edgeStyle=orthogonalEdgeStyle;rounded=0;orthogonalLoop=1;jettySize=auto;html=1;exitX=1;exitY=0.5;exitDx=0;exitDy=0;entryX=0;entryY=0.5;entryDx=0;entryDy=0;strokeWidth=6;fontSize=30;fontColor=none;" parent="1" source="6ciUN1QbZPSy4jL6s6Ek-3" target="xgc6DM9Copx6KXdF2zNQ-42" edge="1">
          <mxGeometry relative="1" as="geometry" />
        </mxCell>
        <mxCell id="xgc6DM9Copx6KXdF2zNQ-50" style="edgeStyle=orthogonalEdgeStyle;rounded=0;orthogonalLoop=1;jettySize=auto;html=1;entryX=0;entryY=0.5;entryDx=0;entryDy=0;strokeWidth=6;fontSize=30;fontColor=none;" parent="1" source="6ciUN1QbZPSy4jL6s6Ek-3" target="xgc6DM9Copx6KXdF2zNQ-31" edge="1">
          <mxGeometry relative="1" as="geometry" />
        </mxCell>
        <mxCell id="xgc6DM9Copx6KXdF2zNQ-51" style="edgeStyle=orthogonalEdgeStyle;rounded=0;orthogonalLoop=1;jettySize=auto;html=1;entryX=0;entryY=0.5;entryDx=0;entryDy=0;strokeWidth=6;fontSize=30;fontColor=none;" parent="1" source="6ciUN1QbZPSy4jL6s6Ek-3" target="xgc6DM9Copx6KXdF2zNQ-44" edge="1">
          <mxGeometry relative="1" as="geometry" />
        </mxCell>
        <mxCell id="xgc6DM9Copx6KXdF2zNQ-52" style="edgeStyle=orthogonalEdgeStyle;rounded=0;orthogonalLoop=1;jettySize=auto;html=1;entryX=0;entryY=0.5;entryDx=0;entryDy=0;strokeWidth=6;fontSize=30;fontColor=none;" parent="1" source="6ciUN1QbZPSy4jL6s6Ek-3" target="xgc6DM9Copx6KXdF2zNQ-46" edge="1">
          <mxGeometry relative="1" as="geometry" />
        </mxCell>
        <mxCell id="6ciUN1QbZPSy4jL6s6Ek-3" value="" style="rounded=0;whiteSpace=wrap;html=1;dashed=1;strokeWidth=5;fillColor=none;" parent="1" vertex="1">
          <mxGeometry x="419" y="-89" width="443" height="166" as="geometry" />
        </mxCell>
        <mxCell id="xgc6DM9Copx6KXdF2zNQ-20" style="edgeStyle=orthogonalEdgeStyle;rounded=0;orthogonalLoop=1;jettySize=auto;html=1;strokeWidth=6;fontSize=23;fontColor=default;" parent="1" source="xgc6DM9Copx6KXdF2zNQ-16" target="UEzPUAAOIrF-is8g5C7q-109" edge="1">
          <mxGeometry relative="1" as="geometry">
            <Array as="points">
              <mxPoint x="240" y="-222" />
            </Array>
          </mxGeometry>
        </mxCell>
        <mxCell id="xgc6DM9Copx6KXdF2zNQ-16" value="" style="rounded=0;whiteSpace=wrap;html=1;dashed=1;strokeWidth=5;fillColor=none;" parent="1" vertex="1">
          <mxGeometry x="419" y="-305" width="443" height="166" as="geometry" />
        </mxCell>
        <mxCell id="xgc6DM9Copx6KXdF2zNQ-7" value="" style="rounded=0;whiteSpace=wrap;html=1;dashed=1;strokeWidth=5;fillColor=none;" parent="1" vertex="1">
          <mxGeometry x="419" y="111" width="443" height="399" as="geometry" />
        </mxCell>
        <mxCell id="xgc6DM9Copx6KXdF2zNQ-21" style="edgeStyle=orthogonalEdgeStyle;rounded=0;orthogonalLoop=1;jettySize=auto;html=1;strokeWidth=6;fontSize=23;fontColor=default;" parent="1" source="6ciUN1QbZPSy4jL6s6Ek-3" target="UEzPUAAOIrF-is8g5C7q-109" edge="1">
          <mxGeometry relative="1" as="geometry">
            <Array as="points">
              <mxPoint x="245" y="-6" />
            </Array>
          </mxGeometry>
        </mxCell>
        <mxCell id="xgc6DM9Copx6KXdF2zNQ-19" style="edgeStyle=orthogonalEdgeStyle;rounded=0;orthogonalLoop=1;jettySize=auto;html=1;entryX=0;entryY=0.5;entryDx=0;entryDy=0;strokeWidth=6;fontSize=30;fontColor=#FF6E42;" parent="1" source="UEzPUAAOIrF-is8g5C7q-109" target="6ciUN1QbZPSy4jL6s6Ek-3" edge="1">
          <mxGeometry relative="1" as="geometry">
            <Array as="points">
              <mxPoint x="245" y="-6" />
            </Array>
          </mxGeometry>
        </mxCell>
        <mxCell id="Y8FRlR6LI_EW2aDHlQSC-1" value="" style="sketch=0;outlineConnect=0;fontColor=#232F3E;gradientColor=none;fillColor=#2E27AD;strokeColor=none;dashed=0;verticalLabelPosition=bottom;verticalAlign=top;align=center;html=1;fontSize=12;fontStyle=0;aspect=fixed;pointerEvents=1;shape=mxgraph.aws4.rds_postgresql_instance_alt;" parent="1" vertex="1">
          <mxGeometry x="734" y="-48.5" width="80" height="80" as="geometry" />
        </mxCell>
        <mxCell id="Y8FRlR6LI_EW2aDHlQSC-2" value="" style="dashed=0;outlineConnect=0;html=1;align=center;labelPosition=center;verticalLabelPosition=bottom;verticalAlign=top;shape=mxgraph.webicons.apache;gradientColor=#DFDEDE" parent="1" vertex="1">
          <mxGeometry x="486" y="-48.5" width="80" height="80" as="geometry" />
        </mxCell>
        <mxCell id="6ciUN1QbZPSy4jL6s6Ek-1" value="" style="shape=image;html=1;verticalAlign=top;verticalLabelPosition=bottom;labelBackgroundColor=#ffffff;imageAspect=0;aspect=fixed;image=https://cdn2.iconfinder.com/data/icons/boxicons-logos/24/bxl-django-128.png" parent="1" vertex="1">
          <mxGeometry x="596" y="-50" width="88" height="88" as="geometry" />
        </mxCell>
        <mxCell id="6ciUN1QbZPSy4jL6s6Ek-7" value="&lt;font color=&quot;#FF642B&quot;&gt;Draw.io&lt;/font&gt;" style="text;html=1;align=center;verticalAlign=middle;resizable=0;points=[];autosize=1;strokeColor=none;fillColor=none;fontSize=30;" parent="1" vertex="1">
          <mxGeometry x="310" y="-660" width="120" height="50" as="geometry" />
        </mxCell>
        <mxCell id="xgc6DM9Copx6KXdF2zNQ-2" value="" style="shape=image;html=1;verticalAlign=top;verticalLabelPosition=bottom;labelBackgroundColor=#ffffff;imageAspect=0;aspect=fixed;image=https://cdn1.iconfinder.com/data/icons/unicons-line-vol-5/24/react-128.png" parent="1" vertex="1">
          <mxGeometry x="673" y="1" width="40" height="40" as="geometry" />
        </mxCell>
        <mxCell id="xgc6DM9Copx6KXdF2zNQ-11" value="" style="edgeStyle=orthogonalEdgeStyle;rounded=0;orthogonalLoop=1;jettySize=auto;html=1;strokeWidth=6;fontSize=30;fontColor=#FF6E42;exitX=1;exitY=0.5;exitDx=0;exitDy=0;exitPerimeter=0;" parent="1" source="xgc6DM9Copx6KXdF2zNQ-3" target="xgc6DM9Copx6KXdF2zNQ-5" edge="1">
          <mxGeometry relative="1" as="geometry" />
        </mxCell>
        <mxCell id="xgc6DM9Copx6KXdF2zNQ-13" style="edgeStyle=orthogonalEdgeStyle;rounded=0;orthogonalLoop=1;jettySize=auto;html=1;strokeWidth=6;fontSize=30;fontColor=#FF6E42;" parent="1" source="xgc6DM9Copx6KXdF2zNQ-3" target="xgc6DM9Copx6KXdF2zNQ-4" edge="1">
          <mxGeometry relative="1" as="geometry" />
        </mxCell>
        <mxCell id="xgc6DM9Copx6KXdF2zNQ-3" value="" style="outlineConnect=0;dashed=0;verticalLabelPosition=bottom;verticalAlign=top;align=center;html=1;shape=mxgraph.aws3.android;fillColor=#205E00;gradientColor=none;" parent="1" vertex="1">
          <mxGeometry x="617" y="274" width="38.5" height="44" as="geometry" />
        </mxCell>
        <mxCell id="xgc6DM9Copx6KXdF2zNQ-4" value="" style="shape=image;html=1;verticalAlign=top;verticalLabelPosition=bottom;labelBackgroundColor=#ffffff;imageAspect=0;aspect=fixed;image=https://cdn1.iconfinder.com/data/icons/bootstrap-vol-3/16/filetype-js-128.png" parent="1" vertex="1">
          <mxGeometry x="565" y="190" width="46" height="46" as="geometry" />
        </mxCell>
        <mxCell id="xgc6DM9Copx6KXdF2zNQ-5" value="" style="shape=image;html=1;verticalAlign=top;verticalLabelPosition=bottom;labelBackgroundColor=#ffffff;imageAspect=0;aspect=fixed;image=https://cdn1.iconfinder.com/data/icons/bootstrap-vol-3/16/filetype-scss-128.png" parent="1" vertex="1">
          <mxGeometry x="659.25" y="190" width="46" height="46" as="geometry" />
        </mxCell>
        <mxCell id="xgc6DM9Copx6KXdF2zNQ-9" style="edgeStyle=orthogonalEdgeStyle;rounded=0;orthogonalLoop=1;jettySize=auto;html=1;exitX=0.5;exitY=0;exitDx=0;exitDy=0;entryX=0.5;entryY=1;entryDx=0;entryDy=0;entryPerimeter=0;fontSize=30;fontColor=#FF6E42;strokeWidth=6;" parent="1" source="xgc6DM9Copx6KXdF2zNQ-6" target="xgc6DM9Copx6KXdF2zNQ-3" edge="1">
          <mxGeometry relative="1" as="geometry" />
        </mxCell>
        <mxCell id="xgc6DM9Copx6KXdF2zNQ-6" value="" style="shape=image;html=1;verticalAlign=top;verticalLabelPosition=bottom;labelBackgroundColor=#ffffff;imageAspect=0;aspect=fixed;image=https://cdn1.iconfinder.com/data/icons/bootstrap-vol-3/16/filetype-jsx-128.png" parent="1" vertex="1">
          <mxGeometry x="613.25" y="402" width="46" height="46" as="geometry" />
        </mxCell>
        <mxCell id="xgc6DM9Copx6KXdF2zNQ-8" value="&lt;div style=&quot;font-size: 30px;&quot;&gt;&lt;font style=&quot;font-size: 30px;&quot; color=&quot;#FF6E42&quot;&gt;Babel transpiles the &lt;br&gt;&lt;/font&gt;&lt;/div&gt;&lt;div style=&quot;font-size: 30px;&quot;&gt;&lt;font style=&quot;font-size: 30px;&quot; color=&quot;#FF6E42&quot;&gt;.jsx into .js and &lt;br&gt;&lt;/font&gt;&lt;/div&gt;&lt;div style=&quot;font-size: 30px;&quot;&gt;&lt;font style=&quot;font-size: 30px;&quot; color=&quot;#FF6E42&quot;&gt;Webpack then &lt;br&gt;&lt;/font&gt;&lt;/div&gt;&lt;div style=&quot;font-size: 30px;&quot;&gt;&lt;font style=&quot;font-size: 30px;&quot; color=&quot;#FF6E42&quot;&gt;bundles all &lt;br&gt;&lt;/font&gt;&lt;/div&gt;&lt;div style=&quot;font-size: 30px;&quot;&gt;&lt;font style=&quot;font-size: 30px;&quot; color=&quot;#FF6E42&quot;&gt;of the .js files and &lt;br&gt;&lt;/font&gt;&lt;/div&gt;&lt;div style=&quot;font-size: 30px;&quot;&gt;&lt;font style=&quot;font-size: 30px;&quot; color=&quot;#FF6E42&quot;&gt;the index.scss &lt;br&gt;&lt;/font&gt;&lt;/div&gt;&lt;div style=&quot;font-size: 30px;&quot;&gt;&lt;font style=&quot;font-size: 30px;&quot; color=&quot;#FF6E42&quot;&gt;into two files&lt;/font&gt;&lt;/div&gt;" style="text;html=1;align=center;verticalAlign=middle;resizable=0;points=[];autosize=1;strokeColor=none;fillColor=none;fontColor=#FF6E42;labelBackgroundColor=default;" parent="1" vertex="1">
          <mxGeometry x="705.25" y="280" width="290" height="270" as="geometry" />
        </mxCell>
        <mxCell id="xgc6DM9Copx6KXdF2zNQ-10" value="&lt;div&gt;&lt;font style=&quot;font-size: 30px;&quot;&gt;The front end is &lt;br&gt;&lt;/font&gt;&lt;/div&gt;&lt;div&gt;&lt;font style=&quot;font-size: 30px;&quot;&gt;integrated into django&lt;/font&gt;&lt;/div&gt;&lt;div&gt;&lt;font style=&quot;font-size: 30px;&quot;&gt;&amp;nbsp;as an &quot;app&quot;. It&#39;s static &lt;br&gt;&lt;/font&gt;&lt;/div&gt;&lt;div&gt;&lt;font style=&quot;font-size: 30px;&quot;&gt;files then get fed &lt;br&gt;&lt;/font&gt;&lt;/div&gt;&lt;div&gt;&lt;font style=&quot;font-size: 30px;&quot;&gt;into the main static &lt;br&gt;&lt;/font&gt;&lt;/div&gt;&lt;div&gt;&lt;font style=&quot;font-size: 30px;&quot;&gt;folder with the &lt;br&gt;&lt;/font&gt;&lt;/div&gt;&lt;div&gt;&lt;font style=&quot;font-size: 30px;&quot;&gt;collectstatic command&lt;/font&gt;&lt;/div&gt;" style="text;html=1;align=center;verticalAlign=middle;resizable=0;points=[];autosize=1;strokeColor=none;fillColor=none;fontColor=#FF6E42;labelBackgroundColor=default;" parent="1" vertex="1">
          <mxGeometry x="220" y="150" width="320" height="270" as="geometry" />
        </mxCell>
        <mxCell id="xgc6DM9Copx6KXdF2zNQ-15" value="" style="aspect=fixed;html=1;points=[];align=center;image;fontSize=12;image=img/lib/azure2/integration/SendGrid_Accounts.svg;labelBackgroundColor=default;fontColor=#FF6E42;" parent="1" vertex="1">
          <mxGeometry x="603.85" y="-256" width="66.8" height="68" as="geometry" />
        </mxCell>
        <mxCell id="UEzPUAAOIrF-is8g5C7q-109" value="&lt;p style=&quot;line-height: 150%;&quot;&gt;&lt;/p&gt;&lt;div style=&quot;font-size: 30px; line-height: 0%;&quot;&gt;&lt;font style=&quot;font-size: 23px;&quot;&gt;Client&lt;/font&gt;&lt;/div&gt;&lt;p&gt;&lt;/p&gt;" style="outlineConnect=0;gradientColor=none;fontColor=none;strokeColor=none;fillColor=#879196;dashed=0;verticalLabelPosition=bottom;verticalAlign=bottom;align=center;html=1;fontSize=12;fontStyle=0;aspect=fixed;shape=mxgraph.aws4.illustration_desktop;pointerEvents=1;labelBackgroundColor=none;labelBorderColor=none;noLabel=1;" parent="1" vertex="1">
          <mxGeometry x="195" y="-160" width="100" height="91" as="geometry" />
        </mxCell>
        <mxCell id="xgc6DM9Copx6KXdF2zNQ-23" value="Client" style="text;html=1;align=center;verticalAlign=middle;resizable=0;points=[];autosize=1;strokeColor=none;fillColor=none;fontSize=23;fontColor=none;" parent="1" vertex="1">
          <mxGeometry x="205" y="-145" width="80" height="40" as="geometry" />
        </mxCell>
        <mxCell id="xgc6DM9Copx6KXdF2zNQ-25" value="&lt;div&gt;&lt;font style=&quot;font-size: 30px;&quot;&gt;The backend uses &lt;br&gt;&lt;/font&gt;&lt;/div&gt;&lt;div&gt;&lt;font style=&quot;font-size: 30px;&quot;&gt;the sendgrid api &lt;br&gt;&lt;/font&gt;&lt;/div&gt;&lt;div&gt;&lt;font style=&quot;font-size: 30px;&quot;&gt;to send emails&lt;br&gt;&lt;/font&gt;&lt;/div&gt;" style="text;html=1;align=center;verticalAlign=middle;resizable=0;points=[];autosize=1;strokeColor=none;fillColor=none;fontColor=#FF6E42;labelBackgroundColor=default;" parent="1" vertex="1">
          <mxGeometry x="505" y="-460" width="270" height="120" as="geometry" />
        </mxCell>
        <mxCell id="xgc6DM9Copx6KXdF2zNQ-17" value="&lt;p style=&quot;line-height: 110%;&quot;&gt;&lt;/p&gt;&lt;div style=&quot;line-height: 0%;&quot;&gt;Sendgrid &lt;br&gt;&lt;/div&gt;&lt;div&gt;&lt;br&gt;&lt;/div&gt;&lt;p&gt;&lt;/p&gt;" style="text;html=1;align=center;verticalAlign=middle;resizable=0;points=[];autosize=1;strokeColor=none;fillColor=none;fontSize=30;fontColor=#FF6E42;labelBackgroundColor=none;" parent="1" vertex="1">
          <mxGeometry x="565" y="-520" width="140" height="110" as="geometry" />
        </mxCell>
        <mxCell id="xgc6DM9Copx6KXdF2zNQ-28" value="" style="sketch=0;points=[[0,0,0],[0.25,0,0],[0.5,0,0],[0.75,0,0],[1,0,0],[0,1,0],[0.25,1,0],[0.5,1,0],[0.75,1,0],[1,1,0],[0,0.25,0],[0,0.5,0],[0,0.75,0],[1,0.25,0],[1,0.5,0],[1,0.75,0]];outlineConnect=0;fontColor=#232F3E;gradientColor=#60A337;gradientDirection=north;fillColor=#277116;strokeColor=#ffffff;dashed=0;verticalLabelPosition=bottom;verticalAlign=top;align=center;html=1;fontSize=12;fontStyle=0;aspect=fixed;shape=mxgraph.aws4.resourceIcon;resIcon=mxgraph.aws4.s3;labelBackgroundColor=default;labelBorderColor=none;" parent="1" vertex="1">
          <mxGeometry x="1312.5" y="167" width="78" height="78" as="geometry" />
        </mxCell>
        <mxCell id="xgc6DM9Copx6KXdF2zNQ-30" value="" style="outlineConnect=0;dashed=0;verticalLabelPosition=bottom;verticalAlign=top;align=center;html=1;shape=mxgraph.aws3.cloud_2;fillColor=#F58534;gradientColor=none;labelBackgroundColor=default;labelBorderColor=none;fontSize=30;fontColor=none;" parent="1" vertex="1">
          <mxGeometry x="1216.5" y="167" width="75" height="75" as="geometry" />
        </mxCell>
        <mxCell id="xgc6DM9Copx6KXdF2zNQ-33" value="" style="dashed=0;outlineConnect=0;html=1;align=center;labelPosition=center;verticalLabelPosition=bottom;verticalAlign=top;shape=mxgraph.weblogos.github;labelBackgroundColor=default;labelBorderColor=none;fontSize=30;fontColor=none;" parent="1" vertex="1">
          <mxGeometry x="1168" y="-44" width="75" height="75" as="geometry" />
        </mxCell>
        <mxCell id="xgc6DM9Copx6KXdF2zNQ-34" value="" style="shape=image;html=1;verticalAlign=top;verticalLabelPosition=bottom;labelBackgroundColor=#ffffff;imageAspect=0;aspect=fixed;image=https://cdn2.iconfinder.com/data/icons/social-media-2285/512/1_Facebook_colored_svg_copy-128.png;labelBorderColor=none;fontSize=30;fontColor=none;" parent="1" vertex="1">
          <mxGeometry x="1268" y="-42.44" width="71.87" height="71.87" as="geometry" />
        </mxCell>
        <mxCell id="xgc6DM9Copx6KXdF2zNQ-35" value="" style="strokeColor=#dddddd;shadow=1;strokeWidth=1;rounded=1;absoluteArcSize=1;arcSize=2;labelBackgroundColor=default;labelBorderColor=none;fontSize=30;fontColor=none;" parent="1" vertex="1">
          <mxGeometry x="1243.93" y="-244" width="120" height="60" as="geometry" />
        </mxCell>
        <mxCell id="xgc6DM9Copx6KXdF2zNQ-36" value="Google&#xa;Analytics" style="sketch=0;dashed=0;connectable=0;html=1;fillColor=#5184F3;strokeColor=none;shape=mxgraph.gcp2.google_analytics;part=1;labelPosition=right;verticalLabelPosition=middle;align=left;verticalAlign=middle;spacingLeft=5;fontColor=#999999;fontSize=12;labelBackgroundColor=default;labelBorderColor=none;" parent="xgc6DM9Copx6KXdF2zNQ-35" vertex="1">
          <mxGeometry width="45" height="45" relative="1" as="geometry">
            <mxPoint x="5" y="7" as="offset" />
          </mxGeometry>
        </mxCell>
        <mxCell id="xgc6DM9Copx6KXdF2zNQ-37" value="" style="shape=image;html=1;verticalAlign=top;verticalLabelPosition=bottom;labelBackgroundColor=#ffffff;imageAspect=0;aspect=fixed;image=https://cdn0.iconfinder.com/data/icons/social-media-and-logos-11/32/Gmail_envelope_letter_email_Gmail_envelope_letter_email-128.png;labelBorderColor=none;fontSize=30;fontColor=none;" parent="1" vertex="1">
          <mxGeometry x="1367" y="-41.44" width="76" height="76" as="geometry" />
        </mxCell>
        <mxCell id="xgc6DM9Copx6KXdF2zNQ-39" value="&lt;div&gt;the backend uses django allauth&lt;br&gt;&lt;/div&gt;&lt;div&gt;to generate a OAuth key that &lt;br&gt;&lt;/div&gt;&lt;div&gt;is used to authenticate users&lt;br&gt;&lt;/div&gt;&lt;div&gt;&lt;br&gt;&lt;/div&gt;" style="text;html=1;align=center;verticalAlign=middle;resizable=0;points=[];autosize=1;strokeColor=none;fillColor=none;fontSize=30;fontColor=#FF6E42;labelBackgroundColor=default;" parent="1" vertex="1">
          <mxGeometry x="1520" y="-69" width="450" height="160" as="geometry" />
        </mxCell>
        <mxCell id="xgc6DM9Copx6KXdF2zNQ-43" value="&lt;div&gt;the backend connects to&lt;/div&gt;&lt;div&gt;posthog and google analytics&lt;/div&gt;&lt;div&gt;to send user activity to the cloud&lt;br&gt;&lt;/div&gt;&lt;div&gt;&lt;br&gt;&lt;/div&gt;" style="text;html=1;align=center;verticalAlign=middle;resizable=0;points=[];autosize=1;strokeColor=none;fillColor=none;fontSize=30;fontColor=#FF6E42;labelBackgroundColor=default;" parent="1" vertex="1">
          <mxGeometry x="1520" y="-281" width="450" height="160" as="geometry" />
        </mxCell>
        <mxCell id="xgc6DM9Copx6KXdF2zNQ-44" value="&lt;font style=&quot;font-size: 30px;&quot;&gt;Sendgrid&lt;/font&gt;" style="rounded=0;whiteSpace=wrap;html=1;dashed=1;strokeWidth=5;fillColor=none;" parent="1" vertex="1">
          <mxGeometry x="1130.68" y="-503" width="346.5" height="166" as="geometry" />
        </mxCell>
        <mxCell id="xgc6DM9Copx6KXdF2zNQ-45" value="&lt;div&gt;the backend logs the errors &lt;br&gt;&lt;/div&gt;&lt;div&gt;on the main server and sends&lt;/div&gt;&lt;div&gt;those errors into a sendgrid &lt;br&gt;&lt;/div&gt;&lt;div&gt;instance as well&lt;br&gt;&lt;/div&gt;" style="text;html=1;align=center;verticalAlign=middle;resizable=0;points=[];autosize=1;strokeColor=none;fillColor=none;fontSize=30;fontColor=#FF6E42;labelBackgroundColor=default;" parent="1" vertex="1">
          <mxGeometry x="1520" y="-503" width="420" height="160" as="geometry" />
        </mxCell>
        <mxCell id="xgc6DM9Copx6KXdF2zNQ-46" value="&lt;font style=&quot;font-size: 30px;&quot;&gt;Stripe&lt;/font&gt;" style="rounded=0;whiteSpace=wrap;html=1;dashed=1;strokeWidth=5;fillColor=none;" parent="1" vertex="1">
          <mxGeometry x="1130" y="332" width="346.5" height="166" as="geometry" />
        </mxCell>
        <mxCell id="xgc6DM9Copx6KXdF2zNQ-47" value="&lt;div&gt;the backend sends all the payment&lt;/div&gt;&lt;div&gt;orders to stripe for fulfillment&lt;br&gt;&lt;/div&gt;" style="text;html=1;align=center;verticalAlign=middle;resizable=0;points=[];autosize=1;strokeColor=none;fillColor=none;fontSize=30;fontColor=#FF6E42;labelBackgroundColor=default;" parent="1" vertex="1">
          <mxGeometry x="1498" y="367" width="490" height="90" as="geometry" />
        </mxCell>
        <mxCell id="RrQftwysjKoqg6gLQJ93-1" value="" style="shape=image;html=1;verticalAlign=top;verticalLabelPosition=bottom;labelBackgroundColor=#ffffff;imageAspect=0;aspect=fixed;image=https://cdn1.iconfinder.com/data/icons/bootstrap-vol-3/16/filetype-jsx-128.png" vertex="1" parent="1">
          <mxGeometry x="562" y="402" width="46" height="46" as="geometry" />
        </mxCell>
        <mxCell id="RrQftwysjKoqg6gLQJ93-3" value="" style="shape=image;html=1;verticalAlign=top;verticalLabelPosition=bottom;labelBackgroundColor=#ffffff;imageAspect=0;aspect=fixed;image=https://cdn1.iconfinder.com/data/icons/bootstrap-vol-3/16/filetype-jsx-128.png" vertex="1" parent="1">
          <mxGeometry x="660" y="402" width="46" height="46" as="geometry" />
        </mxCell>
        <mxCell id="RrQftwysjKoqg6gLQJ93-4" value="" style="shape=image;html=1;verticalAlign=top;verticalLabelPosition=bottom;labelBackgroundColor=#ffffff;imageAspect=0;aspect=fixed;image=https://cdn1.iconfinder.com/data/icons/bootstrap-vol-3/16/filetype-scss-128.png" vertex="1" parent="1">
          <mxGeometry x="510" y="402" width="46" height="46" as="geometry" />
        </mxCell>
      </root>
    </mxGraphModel>
  </diagram>
</mxfile>
